# xmcd CD database file
# Copyright (C) 1996 Ti Kan
#
# Track frame offsets:
#	150
#	17810
#	38275
#	58125
#	77285
#	93022
#	109705
#	131310
#	149375
#	171697
#	197760
#	224742
# Disc length: 3229 seconds
#
# Revision: 1
# Processed by: cddbd v1.4PL0 Copyright (c) Steve Scherf et al.
# Submitted via: CDCOPY 4.744
#
DISCID=a00c9b0c
DTITLE=Tom Cunningham - What if
DYEAR=1900
DGENRE=
TTITLE0=Didn't know her name
TTITLE1=Gues I'll have to do it
TTITLE2=New Alibi
TTITLE3=Somebody else
TTITLE4=Gambled on your love
TTITLE5=Below the surface
TTITLE6=Even angels
TTITLE7=Good year
TTITLE8=Time and time again
TTITLE9=Halfway home
TTITLE10=Chico
TTITLE11=What if
EXTD=
EXTT0=
EXTT1=
EXTT2=
EXTT3=
EXTT4=
EXTT5=
EXTT6=
EXTT7=
EXTT8=
EXTT9=
EXTT10=
EXTT11=
PLAYORDER=
